<?xml version="1.0" encoding="UTF-8" standalone="no"?>
<!DOCTYPE svg PUBLIC "-//W3C//DTD SVG 1.1//EN" "http://www.w3.org/Graphics/SVG/1.1/DTD/svg11.dtd">
<svg width="500px" height="500px" version="1.1" xmlns="http://www.w3.org/2000/svg" xmlns:xlink="http://www.w3.org/1999/xlink" xml:space="preserve" xmlns:serif="http://www.serif.com/" style="fill-rule:evenodd;clip-rule:evenodd;stroke-linejoin:round;stroke-miterlimit:2;">
    <g>
        <path d="M450,387.214C450,403.481 436.814,416.667 420.548,416.667L371.238,416.667C362.676,416.667 354.533,420.395 348.938,426.881C342.01,434.91 332.405,446.043 325.476,454.071C319.881,460.557 311.743,464.286 303.176,464.286L197.662,464.286C188.619,464.286 180.071,460.129 174.49,453.01C168.552,445.443 160.767,435.51 154.829,427.943C149.248,420.824 140.7,416.667 131.652,416.667L79.452,416.667C63.186,416.667 50,403.481 50,387.214L50,88.976C50,72.71 63.186,59.524 79.452,59.524L420.548,59.524C436.814,59.524 450,72.71 450,88.976L450,387.214Z" style="fill:#cf8b17;"/>
        <path d="M450,363.405C450,379.671 436.814,392.857 420.548,392.857L371.238,392.857C362.676,392.857 354.533,396.586 348.938,403.071C342.01,411.1 332.405,422.233 325.476,430.262C319.881,436.748 311.743,440.476 303.176,440.476L197.662,440.476C188.619,440.476 180.071,436.319 174.49,429.2C168.552,421.633 160.767,411.7 154.829,404.133C149.248,397.014 140.7,392.857 131.652,392.857L79.452,392.857C63.186,392.857 50,379.671 50,363.405L50,65.167C50,48.9 63.186,35.714 79.452,35.714L420.548,35.714C436.814,35.714 450,48.9 450,65.167L450,363.405Z" style="fill:#ffab19;"/>
        <path d="M420.548,35.714L421.305,35.724L421.686,35.738L422.062,35.752L422.814,35.8L423.186,35.829L423.929,35.905L424.3,35.952L424.667,36L425.033,36.052L425.395,36.11L425.762,36.176L426.124,36.243L426.481,36.314L426.843,36.39L427.2,36.467L427.552,36.552L427.91,36.643L428.262,36.733L428.957,36.933L429.305,37.038L429.652,37.148L429.995,37.262L430.333,37.381L430.676,37.5L431.01,37.629L431.348,37.757L431.681,37.89L432.01,38.029L432.343,38.171L432.667,38.314L432.995,38.467L433.314,38.619L433.638,38.776L433.957,38.938L434.271,39.1L434.9,39.443L435.21,39.614L435.819,39.976L436.124,40.167L436.424,40.352L437.014,40.743L437.305,40.943L437.595,41.148L437.886,41.357L438.171,41.567L438.452,41.781L438.729,41.995L439.01,42.214L439.281,42.438L439.824,42.895L440.086,43.129L440.352,43.367L440.61,43.605L441.124,44.09L441.371,44.343L441.624,44.59L442.11,45.105L442.348,45.362L442.586,45.629L442.819,45.89L443.276,46.433L443.5,46.705L443.719,46.986L443.933,47.262L444.148,47.543L444.357,47.829L444.567,48.119L444.771,48.41L444.971,48.7L445.362,49.29L445.548,49.59L445.738,49.895L446.1,50.505L446.271,50.814L446.614,51.443L446.776,51.757L446.938,52.076L447.095,52.4L447.248,52.719L447.4,53.048L447.543,53.371L447.686,53.705L447.824,54.033L447.957,54.367L448.086,54.705L448.214,55.038L448.333,55.381L448.452,55.719L448.567,56.062L448.676,56.41L448.781,56.757L448.981,57.452L449.071,57.805L449.162,58.162L449.248,58.514L449.324,58.871L449.4,59.233L449.471,59.59L449.538,59.952L449.605,60.319L449.662,60.681L449.714,61.048L449.762,61.414L449.81,61.786L449.886,62.529L449.914,62.9L449.962,63.652L449.99,64.405L450,65.167L450,363.405L449.995,363.786L449.99,364.167L449.976,364.543L449.962,364.919L449.938,365.295L449.914,365.671L449.886,366.043L449.848,366.414L449.81,366.786L449.762,367.157L449.714,367.524L449.662,367.89L449.605,368.252L449.538,368.619L449.471,368.981L449.4,369.338L449.324,369.7L449.248,370.057L449.162,370.41L449.071,370.767L448.981,371.119L448.881,371.467L448.781,371.814L448.676,372.162L448.567,372.51L448.452,372.852L448.333,373.19L448.214,373.533L448.086,373.867L447.957,374.205L447.824,374.538L447.686,374.867L447.543,375.2L447.4,375.524L447.248,375.852L447.095,376.171L446.938,376.495L446.776,376.814L446.614,377.129L446.443,377.443L446.271,377.757L446.1,378.067L445.919,378.371L445.738,378.676L445.548,378.981L445.362,379.281L445.167,379.576L444.971,379.871L444.771,380.162L444.567,380.452L444.357,380.743L444.148,381.029L443.933,381.31L443.719,381.586L443.5,381.867L443.276,382.138L443.048,382.41L442.819,382.681L442.586,382.943L442.348,383.21L442.11,383.467L441.867,383.724L441.624,383.981L441.371,384.229L441.124,384.481L440.867,384.724L440.61,384.967L440.352,385.205L440.086,385.443L439.824,385.676L439.552,385.905L439.281,386.133L439.01,386.357L438.729,386.576L438.452,386.79L438.171,387.005L437.886,387.214L437.595,387.424L437.305,387.629L437.014,387.829L436.719,388.024L436.424,388.219L436.124,388.405L435.819,388.595L435.514,388.776L435.21,388.957L434.9,389.129L434.586,389.3L434.271,389.471L433.957,389.633L433.638,389.795L433.314,389.952L432.995,390.105L432.667,390.257L432.343,390.4L432.01,390.543L431.681,390.681L431.348,390.814L431.01,390.943L430.676,391.071L430.333,391.19L429.995,391.31L429.652,391.424L429.305,391.533L428.957,391.638L428.61,391.738L428.262,391.838L427.91,391.929L427.552,392.019L427.2,392.105L426.843,392.181L426.481,392.257L426.124,392.329L425.762,392.395L425.395,392.462L425.033,392.519L424.667,392.571L424.3,392.619L423.929,392.667L423.557,392.705L423.186,392.743L422.814,392.771L422.438,392.795L422.062,392.819L421.686,392.833L421.31,392.848L420.929,392.852L420.548,392.857L371.238,392.857L370.838,392.862L370.438,392.867L370.038,392.881L369.638,392.9L369.238,392.924L368.843,392.952L368.448,392.99L368.052,393.029L367.657,393.076L367.262,393.129L366.871,393.181L366.481,393.243L366.09,393.31L365.7,393.381L365.314,393.457L364.929,393.543L364.543,393.629L364.162,393.719L363.776,393.819L363.4,393.919L363.019,394.029L362.643,394.138L362.267,394.257L361.895,394.381L361.524,394.505L361.152,394.638L360.786,394.776L360.419,394.914L360.052,395.062L359.69,395.214L359.333,395.371L358.976,395.533L358.619,395.7L358.267,395.867L357.914,396.043L357.567,396.224L357.219,396.41L356.876,396.595L356.533,396.79L356.195,396.99L355.857,397.19L355.524,397.4L355.195,397.61L354.867,397.829L354.538,398.048L354.214,398.276L353.895,398.505L353.581,398.738L353.267,398.976L352.952,399.219L352.643,399.467L352.338,399.719L352.038,399.976L351.738,400.238L351.443,400.5L351.152,400.771L350.862,401.043L350.576,401.319L350.295,401.6L350.014,401.886L349.743,402.176L349.471,402.471L349.205,402.767L348.938,403.071L325.476,430.262L325.214,430.567L324.948,430.862L324.676,431.157L324.4,431.448L324.119,431.733L323.838,432.014L323.552,432.29L323.267,432.562L322.971,432.833L322.676,433.095L322.376,433.357L322.076,433.614L321.771,433.867L321.462,434.114L321.152,434.357L320.838,434.595L320.519,434.829L320.2,435.057L319.876,435.286L319.552,435.505L319.224,435.724L318.89,435.933L318.557,436.143L318.224,436.343L317.881,436.543L317.543,436.738L317.195,436.924L316.852,437.11L316.5,437.29L316.152,437.467L315.795,437.633L315.443,437.8L315.086,437.962L314.724,438.119L314.362,438.271L314,438.419L313.633,438.557L313.262,438.695L312.895,438.829L312.524,438.952L312.148,439.076L311.771,439.195L311.395,439.305L311.019,439.414L310.638,439.514L310.257,439.614L309.871,439.705L309.49,439.79L309.105,439.876L308.714,439.952L308.329,440.024L307.938,440.09L307.548,440.152L307.152,440.205L306.762,440.257L306.367,440.305L305.971,440.343L305.571,440.381L305.176,440.41L304.776,440.433L304.381,440.452L303.981,440.467L303.581,440.471L303.176,440.476L197.662,440.476L197.243,440.471L196.819,440.462L196.395,440.448L195.976,440.429L195.552,440.4L195.133,440.367L194.719,440.329L194.3,440.286L193.886,440.233L193.471,440.176L193.057,440.114L192.643,440.048L192.233,439.971L191.824,439.89L191.419,439.805L191.01,439.714L190.61,439.619L190.205,439.514L189.805,439.41L189.405,439.295L189.01,439.176L188.614,439.052L188.219,438.919L187.829,438.786L187.438,438.643L187.052,438.5L186.667,438.348L186.286,438.19L185.905,438.029L185.529,437.857L185.152,437.686L184.776,437.51L184.41,437.324L184.038,437.133L183.676,436.943L183.31,436.743L182.952,436.538L182.595,436.329L182.243,436.114L181.89,435.895L181.543,435.671L181.195,435.443L180.857,435.21L180.514,434.971L180.181,434.724L179.848,434.476L179.519,434.224L179.195,433.967L178.871,433.7L178.552,433.433L178.238,433.162L177.924,432.886L177.619,432.6L177.314,432.314L177.014,432.024L176.719,431.729L176.424,431.429L176.133,431.124L175.852,430.814L175.571,430.5L175.295,430.181L175.019,429.857L174.752,429.533L174.49,429.2L154.829,404.133L154.567,403.8L154.295,403.476L154.024,403.152L153.748,402.833L153.467,402.519L153.181,402.21L152.895,401.905L152.6,401.605L152.305,401.31L152.005,401.019L151.7,400.733L151.39,400.448L151.081,400.171L150.767,399.9L150.448,399.633L150.124,399.367L149.8,399.11L149.471,398.857L149.138,398.61L148.8,398.362L148.462,398.124L148.124,397.89L147.776,397.662L147.429,397.438L147.076,397.219L146.724,397.005L146.367,396.795L146.005,396.59L145.643,396.39L145.281,396.2L144.91,396.01L144.543,395.824L144.167,395.648L143.79,395.476L143.414,395.305L143.033,395.143L142.652,394.986L142.267,394.833L141.881,394.69L141.49,394.548L141.1,394.414L140.705,394.281L140.31,394.157L139.914,394.038L139.514,393.924L139.114,393.819L138.71,393.714L138.305,393.619L137.9,393.529L137.495,393.443L137.086,393.362L136.676,393.286L136.262,393.219L135.848,393.157L135.433,393.1L135.019,393.048L134.6,393.005L134.181,392.967L133.762,392.933L133.343,392.905L132.924,392.886L132.5,392.871L132.076,392.862L131.652,392.857L79.452,392.857L79.071,392.852L78.69,392.848L78.314,392.833L77.938,392.819L77.562,392.795L77.186,392.771L76.814,392.743L76.443,392.705L76.071,392.667L75.7,392.619L75.333,392.571L74.967,392.519L74.605,392.462L74.238,392.395L73.876,392.329L73.519,392.257L73.157,392.181L72.8,392.105L72.448,392.019L72.09,391.929L71.738,391.838L71.39,391.738L71.043,391.638L70.695,391.533L70.348,391.424L70.005,391.31L69.667,391.19L69.324,391.071L68.99,390.943L68.652,390.814L68.319,390.681L67.99,390.543L67.657,390.4L67.333,390.257L67.005,390.105L66.686,389.952L66.362,389.795L66.043,389.633L65.729,389.471L65.414,389.3L65.1,389.129L64.79,388.957L64.486,388.776L64.181,388.595L63.876,388.405L63.576,388.219L63.281,388.024L62.986,387.829L62.695,387.629L62.405,387.424L62.114,387.214L61.829,387.005L61.548,386.79L61.271,386.576L60.99,386.357L60.719,386.133L60.448,385.905L60.176,385.676L59.914,385.443L59.648,385.205L59.39,384.967L59.133,384.724L58.876,384.481L58.629,384.229L58.376,383.981L58.133,383.724L57.89,383.467L57.652,383.21L57.414,382.943L57.181,382.681L56.952,382.41L56.724,382.138L56.5,381.867L56.281,381.586L56.067,381.31L55.852,381.029L55.643,380.743L55.433,380.452L55.229,380.162L55.029,379.871L54.833,379.576L54.638,379.281L54.452,378.981L54.262,378.676L54.081,378.371L53.9,378.067L53.729,377.757L53.557,377.443L53.386,377.129L53.224,376.814L53.062,376.495L52.905,376.171L52.752,375.852L52.6,375.524L52.457,375.2L52.314,374.867L52.176,374.538L52.043,374.205L51.914,373.867L51.786,373.533L51.667,373.19L51.548,372.852L51.433,372.51L51.324,372.162L51.219,371.814L51.119,371.467L51.019,371.119L50.929,370.767L50.838,370.41L50.752,370.057L50.676,369.7L50.6,369.338L50.529,368.981L50.462,368.619L50.395,368.252L50.338,367.89L50.286,367.524L50.238,367.157L50.19,366.786L50.152,366.414L50.114,366.043L50.086,365.671L50.062,365.295L50.038,364.919L50.024,364.543L50.01,364.167L50.005,363.786L50,363.405L50,65.167L50.005,64.786L50.01,64.405L50.024,64.029L50.038,63.652L50.062,63.276L50.086,62.9L50.114,62.529L50.152,62.157L50.19,61.786L50.238,61.414L50.286,61.048L50.338,60.681L50.395,60.319L50.462,59.952L50.529,59.59L50.6,59.233L50.676,58.871L50.752,58.514L50.838,58.162L50.929,57.805L51.019,57.452L51.119,57.105L51.219,56.757L51.324,56.41L51.433,56.062L51.548,55.719L51.667,55.381L51.786,55.038L51.914,54.705L52.043,54.367L52.176,54.033L52.314,53.705L52.457,53.371L52.6,53.048L52.752,52.719L52.905,52.4L53.062,52.076L53.224,51.757L53.386,51.443L53.557,51.129L53.729,50.814L53.9,50.505L54.081,50.2L54.262,49.895L54.452,49.59L54.638,49.29L54.833,48.995L55.029,48.7L55.229,48.41L55.433,48.119L55.643,47.829L55.852,47.543L56.067,47.262L56.281,46.986L56.5,46.705L56.724,46.433L56.952,46.162L57.181,45.89L57.414,45.629L57.652,45.362L57.89,45.105L58.133,44.848L58.376,44.59L58.629,44.343L58.876,44.09L59.133,43.848L59.39,43.605L59.648,43.367L59.914,43.129L60.176,42.895L60.448,42.667L60.719,42.438L60.99,42.214L61.271,41.995L61.548,41.781L61.829,41.567L62.114,41.357L62.405,41.148L62.695,40.943L62.986,40.743L63.281,40.548L63.576,40.352L63.876,40.167L64.181,39.976L64.486,39.795L64.79,39.614L65.1,39.443L65.414,39.271L65.729,39.1L66.043,38.938L66.362,38.776L66.686,38.619L67.005,38.467L67.333,38.314L67.657,38.171L67.99,38.029L68.319,37.89L68.652,37.757L68.99,37.629L69.324,37.5L69.667,37.381L70.005,37.262L70.348,37.148L70.695,37.038L71.043,36.933L71.39,36.833L71.738,36.733L72.09,36.643L72.448,36.552L72.8,36.467L73.157,36.39L73.519,36.314L73.876,36.243L74.238,36.176L74.605,36.11L74.967,36.052L75.333,36L75.7,35.952L76.071,35.905L76.443,35.867L76.814,35.829L77.186,35.8L77.562,35.776L77.938,35.752L78.314,35.738L78.695,35.724L79.071,35.719L79.452,35.714L420.548,35.714ZM79.495,48.81L79.238,48.81L79.024,48.814L78.81,48.824L78.6,48.833L78.39,48.843L78.181,48.857L77.971,48.876L77.767,48.895L77.557,48.919L77.352,48.943L77.148,48.971L76.948,49L76.743,49.033L76.543,49.067L76.343,49.105L76.143,49.143L75.943,49.186L75.748,49.229L75.552,49.276L75.357,49.324L75.162,49.376L74.967,49.429L74.776,49.486L74.581,49.543L74.395,49.605L74.205,49.667L74.014,49.733L73.829,49.8L73.643,49.867L73.457,49.938L73.271,50.014L73.09,50.09L72.91,50.167L72.729,50.248L72.548,50.333L72.367,50.414L72.19,50.505L72.014,50.59L71.838,50.681L71.667,50.776L71.49,50.871L71.319,50.971L71.152,51.067L70.981,51.171L70.81,51.276L70.648,51.381L70.481,51.486L70.314,51.595L70.152,51.71L69.99,51.819L69.833,51.933L69.671,52.052L69.514,52.171L69.362,52.29L69.205,52.414L69.052,52.538L68.9,52.667L68.752,52.795L68.605,52.924L68.457,53.057L68.314,53.19L68.167,53.324L68.029,53.462L67.886,53.6L67.748,53.743L67.61,53.886L67.476,54.029L67.343,54.171L67.21,54.319L67.081,54.467L66.952,54.614L66.824,54.767L66.7,54.919L66.581,55.076L66.457,55.229L66.338,55.39L66.219,55.548L66.105,55.705L65.99,55.867L65.881,56.029L65.771,56.195L65.662,56.362L65.557,56.529L65.457,56.695L65.352,56.862L65.252,57.033L65.157,57.205L65.062,57.381L64.967,57.552L64.876,57.729L64.79,57.905L64.7,58.081L64.619,58.262L64.533,58.443L64.452,58.624L64.376,58.805L64.3,58.986L64.224,59.171L64.152,59.357L64.086,59.543L64.019,59.729L63.952,59.919L63.89,60.11L63.829,60.3L63.771,60.49L63.714,60.681L63.662,60.876L63.61,61.071L63.562,61.267L63.514,61.462L63.471,61.657L63.429,61.857L63.39,62.057L63.352,62.257L63.319,62.457L63.286,62.662L63.257,62.862L63.229,63.067L63.205,63.271L63.181,63.481L63.162,63.686L63.143,63.895L63.129,64.105L63.119,64.314L63.11,64.524L63.1,64.738L63.095,64.952L63.095,363.619L63.1,363.833L63.129,364.467L63.143,364.676L63.162,364.886L63.181,365.09L63.205,365.3L63.229,365.505L63.286,365.914L63.352,366.314L63.429,366.714L63.471,366.914L63.514,367.11L63.61,367.5L63.714,367.89L63.771,368.081L63.829,368.276L63.89,368.462L63.952,368.652L64.019,368.843L64.152,369.214L64.224,369.4L64.3,369.586L64.452,369.948L64.533,370.129L64.619,370.31L64.7,370.49L64.79,370.667L64.876,370.843L64.967,371.019L65.062,371.19L65.157,371.367L65.252,371.538L65.352,371.71L65.457,371.876L65.557,372.043L65.662,372.21L65.881,372.543L65.995,372.705L66.105,372.867L66.219,373.024L66.338,373.181L66.457,373.343L66.581,373.495L66.7,373.652L66.824,373.805L66.952,373.957L67.21,374.252L67.343,374.4L67.476,374.543L67.61,374.69L67.748,374.829L67.886,374.971L68.029,375.11L68.167,375.248L68.31,375.381L68.605,375.648L68.9,375.905L69.052,376.033L69.205,376.157L69.362,376.281L69.519,376.4L69.671,376.519L69.833,376.633L69.99,376.752L70.152,376.867L70.319,376.976L70.481,377.086L70.643,377.19L70.814,377.3L70.981,377.4L71.148,377.505L71.319,377.6L71.49,377.7L71.667,377.795L71.838,377.89L72.014,377.981L72.19,378.067L72.367,378.157L72.548,378.238L72.729,378.324L72.91,378.405L73.271,378.557L73.457,378.633L73.643,378.705L74.014,378.838L74.205,378.905L74.586,379.029L74.967,379.143L75.357,379.248L75.748,379.343L75.948,379.386L76.143,379.429L76.543,379.505L76.743,379.538L76.948,379.571L77.148,379.6L77.352,379.629L77.557,379.652L77.767,379.676L77.971,379.695L78.181,379.714L78.39,379.729L78.81,379.748L79.024,379.757L79.238,379.762L131.7,379.762L132.267,379.767L132.876,379.781L133.486,379.8L134.095,379.833L134.7,379.871L135.305,379.919L135.91,379.976L136.514,380.038L137.114,380.114L137.714,380.195L138.31,380.286L138.905,380.386L139.5,380.49L140.09,380.605L140.681,380.729L141.267,380.862L141.848,381L142.429,381.148L143.01,381.305L143.586,381.467L144.162,381.643L144.733,381.819L145.3,382.01L145.867,382.205L146.429,382.41L146.986,382.619L147.543,382.838L148.095,383.067L148.643,383.3L149.19,383.543L149.733,383.79L150.271,384.048L150.805,384.314L151.338,384.586L151.862,384.867L152.39,385.157L152.905,385.448L153.424,385.752L153.933,386.062L154.443,386.376L154.943,386.7L155.443,387.033L155.938,387.371L156.429,387.714L156.91,388.067L157.39,388.429L157.867,388.795L158.338,389.167L158.805,389.548L159.262,389.933L159.719,390.329L160.171,390.729L160.614,391.138L161.052,391.552L161.486,391.971L161.914,392.4L162.338,392.833L162.757,393.276L163.167,393.724L163.571,394.176L163.971,394.633L164.367,395.1L164.752,395.571L165.105,396.014L184.762,421.081L184.938,421.305L185.09,421.486L185.238,421.662L185.552,422.014L185.867,422.357L186.195,422.686L186.362,422.848L186.533,423.01L186.7,423.167L187.052,423.471L187.229,423.619L187.405,423.762L187.586,423.91L187.767,424.048L188.138,424.324L188.329,424.452L188.519,424.586L188.71,424.714L188.905,424.838L189.295,425.076L189.495,425.195L189.695,425.31L189.895,425.419L190.095,425.524L190.3,425.629L190.51,425.733L190.714,425.829L190.924,425.929L191.343,426.11L191.557,426.2L192.2,426.443L192.419,426.519L192.638,426.59L193.076,426.724L193.524,426.848L193.748,426.905L194.195,427.01L194.419,427.057L194.876,427.143L195.105,427.181L195.333,427.214L195.567,427.248L195.795,427.271L196.024,427.3L196.49,427.338L196.957,427.367L197.19,427.376L197.429,427.381L303.4,427.381L303.624,427.376L303.848,427.367L304.067,427.357L304.286,427.343L304.51,427.329L304.729,427.305L304.948,427.286L305.167,427.257L305.386,427.233L305.605,427.2L305.819,427.167L306.038,427.129L306.252,427.09L306.467,427.048L306.681,427L306.895,426.952L307.11,426.9L307.319,426.848L307.533,426.79L307.743,426.733L307.952,426.667L308.157,426.605L308.367,426.538L308.571,426.467L308.781,426.39L308.986,426.314L309.186,426.238L309.39,426.157L309.59,426.071L309.79,425.986L309.99,425.895L310.186,425.805L310.381,425.71L310.576,425.61L310.771,425.51L310.962,425.41L311.157,425.305L311.343,425.195L311.533,425.086L311.719,424.971L311.905,424.857L312.09,424.738L312.271,424.619L312.452,424.495L312.633,424.371L312.81,424.243L312.986,424.114L313.162,423.981L313.333,423.848L313.505,423.71L313.671,423.571L313.843,423.429L314.005,423.281L314.171,423.138L314.333,422.986L314.495,422.833L314.652,422.681L314.81,422.524L314.962,422.367L315.119,422.205L315.267,422.043L315.414,421.876L315.59,421.676L339.052,394.481L339.405,394.081L339.79,393.648L340.181,393.224L340.581,392.805L340.981,392.395L341.39,391.99L341.8,391.586L342.219,391.195L342.643,390.805L343.071,390.424L343.5,390.048L343.938,389.676L344.376,389.31L344.824,388.952L345.271,388.605L345.729,388.257L346.186,387.919L346.648,387.586L347.114,387.262L347.586,386.943L348.057,386.629L348.538,386.324L349.019,386.024L349.505,385.729L349.995,385.443L350.49,385.162L350.986,384.89L351.486,384.624L351.99,384.362L352.5,384.11L353.01,383.867L353.524,383.624L354.038,383.395L354.557,383.167L355.081,382.948L355.61,382.738L356.138,382.533L356.667,382.333L357.2,382.143L357.738,381.962L358.276,381.786L358.819,381.614L359.362,381.452L359.914,381.295L360.462,381.148L361.014,381.01L361.567,380.876L362.119,380.748L362.681,380.633L363.238,380.519L363.8,380.414L364.367,380.319L364.929,380.233L365.495,380.152L366.062,380.076L366.633,380.01L367.205,379.952L367.776,379.905L368.352,379.857L368.929,379.824L369.505,379.795L370.081,379.776L370.657,379.767L371.195,379.762L420.762,379.762L420.976,379.757L421.19,379.748L421.4,379.738L421.61,379.729L421.819,379.714L422.029,379.695L422.233,379.676L422.443,379.652L422.648,379.629L422.852,379.6L423.057,379.571L423.257,379.538L423.457,379.505L423.657,379.467L423.857,379.429L424.057,379.386L424.252,379.343L424.448,379.295L424.643,379.248L424.838,379.195L425.033,379.143L425.224,379.086L425.414,379.029L425.605,378.967L425.795,378.905L425.986,378.838L426.171,378.771L426.357,378.705L426.543,378.633L426.729,378.557L426.91,378.481L427.09,378.405L427.271,378.324L427.452,378.238L427.633,378.157L427.81,378.067L427.986,377.981L428.162,377.89L428.333,377.795L428.51,377.7L428.681,377.6L428.848,377.505L429.019,377.405L429.19,377.295L429.352,377.19L429.519,377.086L429.686,376.976L429.848,376.862L430.01,376.752L430.167,376.638L430.329,376.519L430.486,376.4L430.638,376.281L430.79,376.157L430.948,376.033L431.1,375.905L431.248,375.776L431.395,375.648L431.543,375.514L431.686,375.381L431.833,375.248L431.971,375.11L432.114,374.971L432.252,374.829L432.39,374.686L432.524,374.543L432.657,374.4L432.79,374.252L432.919,374.105L433.048,373.952L433.176,373.805L433.3,373.652L433.419,373.495L433.543,373.338L433.662,373.181L433.776,373.024L433.895,372.862L434.005,372.705L434.119,372.538L434.229,372.376L434.338,372.21L434.443,372.043L434.543,371.876L434.643,371.71L434.748,371.538L434.843,371.367L434.938,371.19L435.033,371.019L435.124,370.843L435.21,370.667L435.3,370.49L435.381,370.31L435.467,370.133L435.548,369.952L435.624,369.767L435.7,369.586L435.776,369.4L435.848,369.214L435.914,369.029L435.981,368.843L436.048,368.652L436.11,368.462L436.171,368.271L436.229,368.081L436.286,367.89L436.338,367.695L436.39,367.5L436.438,367.31L436.486,367.11L436.529,366.91L436.571,366.714L436.61,366.514L436.648,366.314L436.681,366.114L436.714,365.914L436.743,365.71L436.771,365.505L436.795,365.3L436.819,365.09L436.838,364.886L436.857,364.681L436.871,364.467L436.881,364.257L436.89,364.043L436.9,363.833L436.905,363.619L436.905,363.362L436.905,65.21L436.905,64.952L436.9,64.738L436.89,64.529L436.881,64.314L436.871,64.105L436.857,63.89L436.838,63.686L436.819,63.481L436.795,63.271L436.771,63.067L436.743,62.862L436.714,62.657L436.681,62.457L436.648,62.257L436.61,62.057L436.571,61.857L436.529,61.662L436.486,61.462L436.438,61.262L436.39,61.071L436.338,60.876L436.286,60.681L436.229,60.49L436.171,60.3L436.11,60.11L436.048,59.919L435.981,59.729L435.914,59.543L435.848,59.357L435.776,59.171L435.7,58.986L435.624,58.805L435.548,58.619L435.467,58.443L435.381,58.262L435.3,58.081L435.21,57.905L435.124,57.729L435.033,57.552L434.938,57.381L434.843,57.205L434.748,57.033L434.643,56.862L434.543,56.695L434.443,56.529L434.338,56.362L434.229,56.195L434.119,56.033L434.01,55.867L433.895,55.705L433.776,55.548L433.662,55.39L433.543,55.233L433.419,55.076L433.3,54.919L433.176,54.767L433.048,54.619L432.919,54.467L432.79,54.319L432.657,54.171L432.524,54.029L432.39,53.886L432.252,53.738L432.114,53.6L431.971,53.462L431.833,53.324L431.686,53.19L431.543,53.057L431.395,52.924L431.248,52.795L431.1,52.667L430.948,52.538L430.795,52.414L430.638,52.295L430.481,52.171L430.329,52.052L430.167,51.933L430.005,51.819L429.848,51.71L429.686,51.595L429.519,51.486L429.352,51.381L429.186,51.271L429.019,51.171L428.852,51.067L428.681,50.967L428.51,50.871L428.333,50.776L428.162,50.681L427.986,50.59L427.81,50.505L427.633,50.414L427.452,50.333L427.271,50.248L427.09,50.167L426.91,50.09L426.729,50.014L426.543,49.938L426.357,49.867L426.171,49.8L425.986,49.733L425.795,49.667L425.605,49.605L425.414,49.543L425.224,49.486L425.033,49.429L424.838,49.376L424.643,49.324L424.448,49.276L424.252,49.229L424.057,49.186L423.857,49.143L423.657,49.105L423.457,49.067L423.257,49.033L423.052,49L422.852,48.971L422.648,48.943L422.443,48.919L422.233,48.895L422.029,48.876L421.819,48.857L421.61,48.843L421.4,48.833L421.19,48.824L420.976,48.814L420.762,48.81L420.505,48.81L79.495,48.81Z" style="fill:#ffba41;"/>
        <g>
            <path id="path4147-0" d="M282.871,119.052C282.567,119.043 282.262,119.048 281.962,119.071C274.343,119.69 269.019,122.895 265,128.69C263.686,130.581 263.457,131.69 262.762,133.271C257.424,129.876 250.724,126.586 241.219,126.267C226.867,125.786 213.471,132.638 204.824,144C196.443,155.005 191.943,169.248 189.733,186.105L189.729,186.152C189.724,186.171 189.719,186.19 189.719,186.21L189.705,186.281C189.676,186.476 189.662,186.671 189.648,186.871L189.643,186.91C189.638,186.943 189.638,186.948 189.633,186.981L189.629,187.043C187.038,216.448 187.562,228.029 188.705,235.367C188.319,235.976 188.376,235.805 187.757,236.871C179.538,250.971 179.49,267.705 179.29,281.948C179.19,289.214 179.395,295.938 179.619,301.11C179.838,307.395 179.148,316.538 185.929,324.338C188.29,327.052 190.986,329.238 193.786,331.086C199.271,334.7 206.69,338.162 215.676,338.095L215.681,338.095C219.929,338.057 224.295,336.924 228.3,333.9L228.305,333.9C232.076,331.052 234.171,327.457 235.324,324.519C236.205,322.281 236.571,320.252 236.857,318.348C242.91,319.771 249.71,320.843 258.176,320.729C272.633,320.529 287.243,315.181 299.148,305.629C311.2,295.962 320.733,280.929 320.733,262.729L320.733,262.576C320.733,262.495 320.733,262.414 320.729,262.338L320.724,262.186L320.724,262.133C320.324,250.914 319.805,243.329 318.614,236.976C317.376,230.376 314.967,224.081 310.071,219.3C307.729,217.014 305.667,215.7 303.824,214.562C303.886,214.357 303.971,214.276 304.029,214.062C306,207.081 307.01,199.467 307.805,191.843C308.605,184.186 309.119,176.5 309.581,170.3C309.805,167.286 310.076,164.419 310.31,162.281C310.424,161.21 310.529,160.314 310.61,159.7C310.686,159.086 311.019,157.81 310.61,159.429C313.057,149.729 310.871,140.295 306.405,133.095C302.386,126.614 294.971,120.595 285.214,119.457C284.462,119.219 283.686,119.081 282.895,119.057C282.886,119.057 282.881,119.052 282.871,119.052L282.867,119.052L282.871,119.052Z" style="fill:#f8a839;fill-rule:nonzero;"/>
            <path d="M283.405,85.876L283.405,85.881L284.29,85.9L285.705,85.99L287.114,86.143L288.519,86.357L287.105,86.11L286.91,86.086L285.443,85.962L286.567,86.019L287.105,86.11L288.357,86.262L289.781,86.486L291.195,86.762L291.271,86.776L292.105,86.881L292.524,87.01L292.971,87.086L293.943,87.271L294.905,87.471L295.857,87.686L296.8,87.914L297.738,88.152L298.667,88.41L299.586,88.681L300.5,88.962L301.405,89.257L302.3,89.567L303.181,89.886L304.057,90.214L304.929,90.557L305.786,90.914L306.638,91.281L307.471,91.657L308.3,92.043L309.114,92.443L309.929,92.848L310.724,93.267L311.514,93.695L312.295,94.129L313.062,94.576L313.819,95.029L314.567,95.49L315.305,95.962L316.033,96.438L316.748,96.924L317.457,97.414L318.152,97.919L318.843,98.424L319.514,98.938L320.186,99.462L320.843,99.99L321.49,100.524L322.124,101.057L322.752,101.605L323.371,102.162L323.976,102.719L324.576,103.276L325.167,103.848L325.743,104.424L326.314,105L326.871,105.586L327.424,106.176L327.967,106.771L328.5,107.371L329.024,107.976L329.533,108.586L330.038,109.2L330.538,109.819L331.024,110.443L331.5,111.071L331.971,111.705L332.433,112.343L332.881,112.986L333.324,113.633L333.762,114.286L334.186,114.948L334.595,115.595L335.01,116.267L335.41,116.943L335.8,117.619L336.186,118.295L336.567,118.981L337.3,120.371L337.652,121.071L338,121.781L338.343,122.49L338.676,123.21L339,123.938L339.319,124.667L339.629,125.395L339.929,126.133L340.224,126.886L340.51,127.633L340.79,128.386L341.057,129.148L341.319,129.914L341.571,130.686L341.814,131.462L342.052,132.243L342.276,133.029L342.495,133.819L342.705,134.614L342.905,135.414L343.095,136.224L343.276,137.029L343.448,137.843L343.61,138.667L343.762,139.49L343.905,140.319L344.038,141.152L344.162,141.986L344.276,142.829L344.376,143.676L344.467,144.519L344.548,145.376L344.619,146.233L344.676,147.095L344.729,147.962L344.762,148.829L344.79,149.695L344.805,150.567L344.81,151.452L344.8,152.329L344.781,153.21L344.748,154.1L344.705,154.981L344.648,155.871L344.581,156.767L344.5,157.657L344.405,158.552L344.3,159.452L344.181,160.348L344.052,161.248L343.91,162.148L343.752,163.048L343.586,163.948L343.414,164.8L343.362,165.229L343.295,165.843L343.224,166.533L343.148,167.295L343.067,168.119L342.986,168.986L342.905,169.895L342.824,170.829L342.748,171.786L342.671,172.781L342.314,177.643L342.114,180.319L341.9,183.124L341.667,186.019L341.538,187.533L341.405,189.052L341.267,190.59L341.119,192.143L340.967,193.714L340.805,195.286L340.638,196.857L340.462,198.438L340.276,200.043L340.076,201.676L339.871,203.267L339.886,203.281L340.29,203.852L340.686,204.424L341.076,205L341.505,205.657L342.19,206.733L342.886,207.89L343.552,209.048L344.186,210.21L344.786,211.362L345.352,212.514L345.89,213.667L346.4,214.81L346.881,215.948L347.338,217.076L347.762,218.2L348.167,219.31L348.543,220.414L348.9,221.51L349.233,222.595L349.543,223.667L349.838,224.729L350.11,225.781L350.367,226.819L350.605,227.848L350.824,228.862L351.033,229.867L351.219,230.838L351.386,231.733L351.538,232.61L351.681,233.49L351.819,234.367L351.952,235.248L352.081,236.129L352.2,237.005L352.419,238.776L352.524,239.662L352.619,240.557L352.71,241.448L352.8,242.348L352.962,244.157L353.043,245.105L353.176,246.914L353.305,248.786L353.424,250.7L353.529,252.648L353.624,254.643L353.714,256.69L353.8,258.79L353.852,260.2L353.871,260.419L353.9,261.61L353.914,262.295L353.914,262.862L353.905,264.119L353.871,265.51L353.814,266.89L353.733,268.267L353.633,269.638L353.51,271L353.367,272.357L353.2,273.705L353.014,275.043L352.81,276.376L352.581,277.7L352.333,279.014L352.067,280.319L351.781,281.614L351.471,282.9L351.148,284.176L350.805,285.443L350.443,286.7L350.067,287.943L349.671,289.176L349.257,290.4L348.829,291.61L348.381,292.81L347.919,294L347.443,295.176L346.948,296.338L346.443,297.495L345.919,298.633L345.386,299.767L344.833,300.881L344.271,301.986L343.695,303.076L343.105,304.157L342.5,305.224L341.886,306.281L341.262,307.324L340.624,308.352L339.971,309.371L339.314,310.376L338.643,311.367L337.957,312.348L337.267,313.314L336.567,314.271L335.852,315.214L335.133,316.143L334.405,317.067L333.662,317.971L332.914,318.862L332.162,319.743L331.395,320.614L330.624,321.471L329.838,322.314L329.052,323.148L328.257,323.967L327.452,324.776L326.643,325.571L325.824,326.357L325,327.129L324.167,327.89L323.329,328.638L322.486,329.371L321.633,330.1L320.776,330.81L319.919,331.505L319.086,332.167L318.257,332.814L317.424,333.448L316.581,334.076L315.733,334.695L314.881,335.3L314.024,335.9L313.162,336.49L312.295,337.071L311.419,337.643L310.543,338.205L309.657,338.762L308.771,339.305L307.881,339.838L306.981,340.362L306.081,340.876L305.176,341.386L304.262,341.881L303.348,342.367L302.429,342.848L301.505,343.314L300.576,343.771L299.643,344.224L298.71,344.662L297.767,345.09L296.819,345.51L295.871,345.919L294.919,346.324L293.962,346.714L293.005,347.095L292.043,347.467L291.071,347.829L290.105,348.176L289.129,348.519L288.152,348.852L287.171,349.171L286.186,349.486L285.2,349.786L284.21,350.076L283.219,350.357L282.219,350.629L281.219,350.886L280.219,351.138L279.214,351.376L278.205,351.605L277.195,351.824L276.181,352.033L275.167,352.229L274.148,352.419L273.124,352.595L272.105,352.762L271.081,352.914L270.052,353.057L269.019,353.19L267.986,353.314L266.957,353.424L265.919,353.524L264.881,353.61L263.848,353.69L262.805,353.757L261.762,353.81L260.719,353.852L259.671,353.886L258.648,353.905L257.552,353.914L256.49,353.914L255.438,353.905L254.881,354.505L254.143,355.267L253.381,356.024L252.595,356.771L251.781,357.514L250.948,358.248L250.086,358.971L249.205,359.686L248.581,360.167L247.971,360.61L247.995,360.6L247.333,361.09L246.367,361.771L245.39,362.429L244.405,363.062L243.405,363.671L242.4,364.262L241.381,364.824L240.357,365.362L239.329,365.876L238.29,366.367L237.248,366.829L236.205,367.267L235.157,367.681L234.11,368.071L233.062,368.438L232.014,368.776L230.967,369.095L229.924,369.386L228.881,369.657L227.843,369.905L226.814,370.129L225.786,370.329L224.767,370.51L223.752,370.671L222.748,370.81L221.752,370.929L220.762,371.033L219.786,371.114L218.819,371.181L217.852,371.229L216.905,371.257L215.962,371.276L215.695,371.276L215.1,371.276L214.281,371.267L213.467,371.248L212.652,371.219L211.843,371.181L211.038,371.133L210.243,371.076L209.448,371.01L208.657,370.938L207.881,370.852L207.1,370.762L206.329,370.662L205.562,370.552L204.8,370.438L204.052,370.314L203.305,370.181L202.562,370.043L201.829,369.895L201.1,369.743L200.376,369.586L199.662,369.419L198.957,369.248L198.257,369.067L197.557,368.881L196.871,368.69L196.19,368.495L195.519,368.295L194.848,368.09L194.19,367.876L193.462,367.638L192.252,367.219L191,366.757L189.771,366.276L188.571,365.786L187.405,365.286L186.262,364.771L185.148,364.248L184.062,363.719L183.005,363.181L181.976,362.638L180.971,362.09L180,361.543L179.052,360.99L178.129,360.438L177.233,359.886L176.367,359.338L175.514,358.781L174.638,358.195L173.748,357.581L172.848,356.943L171.938,356.281L171.024,355.59L170.105,354.876L169.181,354.133L168.252,353.362L167.324,352.562L166.395,351.733L165.467,350.871L164.543,349.981L163.619,349.062L162.7,348.11L161.79,347.124L160.9,346.119L160.157,345.248L159.438,344.371L158.743,343.486L158.067,342.595L157.414,341.69L156.781,340.781L156.176,339.871L155.586,338.952L155.024,338.029L154.476,337.1L153.957,336.171L153.462,335.243L152.986,334.314L152.529,333.386L152.1,332.462L151.686,331.538L151.295,330.614L150.929,329.705L150.576,328.795L150.248,327.895L149.938,327L149.648,326.114L149.371,325.238L149.114,324.367L148.876,323.51L148.652,322.662L148.448,321.829L148.252,321L148.076,320.195L147.914,319.39L147.762,318.605L147.624,317.833L147.495,317.076L147.381,316.329L147.271,315.6L147.176,314.886L147.09,314.186L147.005,313.429L146.881,312.186L146.776,310.933L146.695,309.748L146.633,308.629L146.59,307.581L146.557,306.61L146.533,305.69L146.505,304.224L146.481,303L146.471,302.586L146.462,302.29L146.381,300.386L146.3,298.09L146.262,296.848L146.224,295.595L146.19,294.31L146.162,292.995L146.138,291.648L146.114,290.271L146.1,288.871L146.09,287.443L146.086,285.986L146.09,284.51L146.1,283.01L146.114,281.529L146.152,278.762L146.176,277.324L146.2,275.843L146.233,274.314L146.276,272.738L146.329,271.124L146.39,269.467L146.471,267.767L146.567,266.071L146.624,265.148L146.681,264.257L146.748,263.352L146.819,262.438L146.9,261.519L146.981,260.59L147.076,259.648L147.171,258.705L147.281,257.748L147.395,256.781L147.519,255.805L147.648,254.824L147.79,253.833L147.938,252.833L148.1,251.829L148.271,250.814L148.452,249.79L148.643,248.757L148.848,247.719L149.067,246.676L149.295,245.624L149.533,244.567L149.79,243.5L150.062,242.429L150.348,241.352L150.643,240.267L150.957,239.176L151.29,238.081L151.638,236.981L152,235.876L152.381,234.767L152.781,233.652L153.195,232.538L153.629,231.419L154.086,230.295L154.557,229.171L154.762,228.705L154.743,228.333L154.686,226.929L154.643,225.481L154.61,223.995L154.59,222.462L154.581,220.886L154.586,219.257L154.605,217.581L154.633,215.843L154.676,214.052L154.733,212.2L154.805,210.281L154.89,208.3L154.99,206.243L155.1,204.119L155.229,201.914L155.376,199.633L155.533,197.271L155.71,194.824L155.9,192.286L156.11,189.662L156.333,186.943L156.543,184.562L156.571,184.086L156.619,183.662L156.652,183.243L156.852,181.576L156.933,181.1L156.938,181.048L156.919,181.162L156.962,180.848L157.095,179.9L157.229,178.952L157.371,178.01L157.514,177.067L157.667,176.124L157.819,175.181L157.981,174.243L158.148,173.3L158.319,172.362L158.495,171.424L158.676,170.49L158.862,169.552L159.057,168.614L159.257,167.681L159.462,166.748L159.671,165.819L159.886,164.886L160.11,163.957L160.338,163.029L160.576,162.1L160.819,161.171L161.067,160.248L161.324,159.319L161.586,158.4L161.852,157.471L162.129,156.552L162.414,155.633L162.705,154.71L163.005,153.795L163.31,152.876L163.624,151.962L163.948,151.048L164.276,150.133L164.614,149.224L164.962,148.314L165.314,147.41L165.681,146.5L166.052,145.595L166.429,144.695L166.819,143.79L167.219,142.895L167.624,141.995L168.038,141.105L168.467,140.21L168.9,139.324L169.343,138.433L169.8,137.552L170.262,136.671L170.733,135.795L171.219,134.919L171.71,134.043L172.214,133.176L172.729,132.314L173.252,131.452L173.786,130.595L174.329,129.743L174.881,128.89L175.448,128.048L176.019,127.21L176.605,126.371L177.2,125.543L177.81,124.719L178.438,123.881L179.124,122.995L179.833,122.1L180.552,121.219L181.29,120.352L182.033,119.49L182.79,118.643L183.562,117.805L184.343,116.981L185.133,116.171L185.933,115.367L186.752,114.576L187.576,113.8L188.41,113.033L189.257,112.281L190.114,111.538L190.981,110.81L191.857,110.095L192.748,109.39L193.648,108.7L194.552,108.024L195.471,107.357L196.405,106.705L197.338,106.067L198.286,105.443L199.243,104.829L200.21,104.233L201.181,103.648L202.167,103.081L203.162,102.524L204.167,101.981L205.176,101.452L206.195,100.943L207.224,100.443L208.257,99.957L209.305,99.49L210.352,99.038L211.414,98.6L212.481,98.181L213.557,97.771L214.638,97.381L215.729,97.005L216.829,96.648L217.933,96.305L219.043,95.976L220.157,95.667L221.281,95.371L222.41,95.095L223.543,94.838L224.686,94.595L225.833,94.367L226.986,94.162L228.143,93.971L229.305,93.8L230.467,93.643L231.638,93.505L232.814,93.386L233.995,93.286L235.176,93.205L236.362,93.143L237.548,93.095L238.743,93.071L239.933,93.062L241.133,93.076L242.281,93.105L243.11,93.133L243.886,93.171L244.657,93.219L245.424,93.271L246.186,93.333L246.948,93.4L247.705,93.476L248.452,93.557L249.2,93.648L249.948,93.748L250.686,93.848L251.419,93.962L252.148,94.081L252.871,94.205L253.595,94.338L253.652,94.348L254.2,94.005L254.89,93.586L255.59,93.176L256.295,92.776L257,92.395L257.714,92.019L258.433,91.652L259.157,91.3L259.89,90.957L260.624,90.629L261.362,90.31L262.105,90L262.843,89.705L263.586,89.424L264.338,89.148L265.09,88.89L265.838,88.638L266.586,88.405L267.338,88.176L268.095,87.962L268.848,87.757L269.6,87.567L270.352,87.386L271.105,87.214L271.857,87.052L272.605,86.905L273.348,86.767L274.1,86.638L274.843,86.519L275.581,86.41L276.329,86.31L277.067,86.219L277.8,86.138L278.538,86.062L279.49,85.981L280.595,85.914L281.729,85.876L282.786,85.867L283.405,85.876ZM282.414,119.048L282.186,119.057L281.962,119.071L281.605,119.1L281.252,119.138L280.905,119.176L280.562,119.219L280.219,119.262L279.881,119.314L279.543,119.367L279.21,119.424L278.881,119.486L278.557,119.552L278.233,119.619L277.91,119.69L277.595,119.771L277.281,119.848L276.971,119.933L276.662,120.019L276.357,120.114L276.057,120.21L275.757,120.305L275.462,120.41L275.167,120.514L274.876,120.629L274.59,120.743L274.305,120.857L274.024,120.981L273.748,121.105L273.471,121.238L273.195,121.371L272.929,121.505L272.657,121.648L272.395,121.79L272.129,121.938L271.871,122.09L271.614,122.248L271.357,122.41L271.105,122.571L270.857,122.738L270.61,122.91L270.367,123.086L270.124,123.262L269.886,123.448L269.648,123.633L269.414,123.824L269.181,124.014L268.948,124.214L268.724,124.414L268.495,124.619L268.271,124.829L268.052,125.043L267.833,125.257L267.619,125.476L267.405,125.705L267.19,125.929L266.981,126.162L266.776,126.4L266.571,126.638L266.367,126.881L266.167,127.129L265.967,127.376L265.767,127.633L265.571,127.89L265.381,128.152L265.19,128.419L265,128.69L264.767,129.033L264.557,129.367L264.367,129.681L264.195,129.981L264.038,130.271L263.9,130.552L263.771,130.829L263.648,131.1L263.538,131.362L263.429,131.629L263.224,132.157L263.005,132.7L262.89,132.981L262.762,133.271L262.257,132.957L261.748,132.638L261.224,132.324L260.695,132.01L260.152,131.7L259.605,131.395L259.048,131.09L258.481,130.79L257.905,130.495L257.314,130.21L256.714,129.924L256.105,129.648L255.486,129.381L254.852,129.114L254.21,128.862L253.552,128.614L252.886,128.381L252.205,128.152L251.51,127.933L250.805,127.729L250.448,127.629L250.086,127.533L249.719,127.438L249.352,127.348L248.981,127.262L248.605,127.176L248.229,127.095L247.843,127.019L247.457,126.943L247.071,126.871L246.676,126.805L246.281,126.743L245.881,126.681L245.476,126.624L245.067,126.571L244.657,126.519L244.243,126.476L243.819,126.433L243.4,126.395L242.971,126.362L242.538,126.333L242.105,126.305L241.667,126.286L241.219,126.267L240.548,126.252L239.881,126.243L239.21,126.248L238.543,126.262L237.876,126.286L237.214,126.324L236.552,126.371L235.89,126.424L235.233,126.49L234.576,126.567L233.924,126.657L233.276,126.752L232.624,126.857L231.981,126.976L231.338,127.1L230.695,127.238L230.057,127.386L229.424,127.538L228.79,127.705L228.162,127.881L227.538,128.062L226.914,128.257L226.295,128.462L225.676,128.671L225.067,128.89L224.457,129.124L223.852,129.362L223.252,129.61L222.652,129.867L222.057,130.133L221.471,130.41L220.886,130.695L220.3,130.986L219.724,131.286L219.152,131.595L218.586,131.914L218.019,132.243L217.462,132.576L216.905,132.919L216.357,133.271L215.81,133.629L215.271,133.995L214.738,134.371L214.205,134.757L213.681,135.148L213.162,135.548L212.648,135.952L212.143,136.367L211.638,136.79L211.143,137.219L210.648,137.657L210.162,138.105L209.686,138.557L209.21,139.014L208.743,139.481L208.281,139.957L207.829,140.438L207.376,140.924L206.938,141.419L206.5,141.924L206.071,142.433L205.648,142.948L205.233,143.471L204.824,144L204.433,144.514L204.048,145.038L203.671,145.567L203.3,146.1L202.929,146.638L202.567,147.176L202.21,147.724L201.862,148.276L201.514,148.833L201.176,149.39L200.838,149.957L200.51,150.529L200.186,151.1L199.867,151.681L199.552,152.262L199.243,152.848L198.938,153.443L198.638,154.038L198.343,154.638L198.057,155.248L197.771,155.857L197.495,156.471L197.219,157.09L196.948,157.714L196.686,158.338L196.424,158.971L196.171,159.61L195.919,160.252L195.676,160.895L195.433,161.543L195.195,162.2L194.967,162.857L194.738,163.519L194.514,164.186L194.295,164.857L194.081,165.533L193.871,166.214L193.667,166.895L193.467,167.586L193.271,168.276L193.076,168.971L192.89,169.671L192.705,170.376L192.524,171.086L192.348,171.8L192.176,172.514L192.01,173.238L191.848,173.962L191.686,174.69L191.529,175.424L191.376,176.162L191.229,176.905L191.086,177.648L190.943,178.4L190.805,179.152L190.671,179.91L190.543,180.671L190.419,181.433L190.295,182.205L190.176,182.976L190.062,183.752L189.948,184.533L189.838,185.319L189.733,186.105L189.729,186.152L189.719,186.21L189.705,186.281L189.671,186.576L189.648,186.871L189.643,186.91L189.633,186.981L189.629,187.043L189.395,189.748L189.181,192.352L188.981,194.852L188.8,197.262L188.633,199.571L188.486,201.79L188.348,203.924L188.229,205.967L188.129,207.924L188.038,209.8L187.957,211.6L187.895,213.319L187.848,214.967L187.81,216.538L187.781,218.043L187.767,219.476L187.762,220.852L187.767,222.162L187.786,223.41L187.81,224.605L187.848,225.743L187.89,226.829L187.943,227.867L188.005,228.852L188.071,229.8L188.143,230.7L188.224,231.562L188.31,232.39L188.405,233.181L188.5,233.938L188.6,234.667L188.705,235.367L188.581,235.562L188.481,235.71L188.319,235.948L188.229,236.086L188.11,236.271L187.957,236.524L187.757,236.871L187.381,237.533L187.014,238.2L186.657,238.871L186.31,239.543L185.976,240.219L185.657,240.9L185.343,241.586L185.043,242.271L184.752,242.962L184.471,243.652L184.205,244.348L183.943,245.048L183.69,245.748L183.452,246.448L183.219,247.152L182.995,247.857L182.781,248.567L182.576,249.276L182.381,249.99L182.195,250.705L182.014,251.419L181.843,252.138L181.676,252.852L181.519,253.571L181.371,254.295L181.229,255.014L181.095,255.738L180.967,256.457L180.843,257.181L180.729,257.905L180.619,258.629L180.519,259.352L180.419,260.081L180.329,260.805L180.243,261.529L180.162,262.252L180.086,262.976L180.019,263.7L179.952,264.419L179.89,265.143L179.833,265.862L179.781,266.586L179.733,267.305L179.686,268.019L179.61,269.452L179.543,270.876L179.486,272.295L179.443,273.705L179.405,275.105L179.376,276.5L179.352,277.881L179.329,279.248L179.29,281.948L179.276,283.3L179.267,284.643L179.267,285.971L179.271,287.281L179.276,288.571L179.29,289.838L179.31,291.09L179.333,292.314L179.362,293.514L179.39,294.69L179.424,295.838L179.462,296.957L179.538,299.1L179.619,301.11L179.638,301.705L179.652,302.319L179.676,303.59L179.705,304.919L179.719,305.6L179.743,306.295L179.776,306.995L179.814,307.71L179.862,308.433L179.924,309.167L180,309.905L180.038,310.276L180.086,310.648L180.19,311.4L180.248,311.776L180.314,312.157L180.381,312.533L180.457,312.914L180.533,313.3L180.619,313.681L180.705,314.067L180.8,314.448L181.01,315.219L181.124,315.605L181.243,315.99L181.371,316.376L181.505,316.762L181.648,317.148L181.795,317.533L181.952,317.919L182.114,318.3L182.286,318.686L182.467,319.071L182.652,319.452L182.848,319.838L183.052,320.219L183.267,320.6L183.49,320.981L183.719,321.357L183.962,321.738L184.214,322.114L184.471,322.486L184.743,322.862L185.024,323.233L185.314,323.605L185.619,323.971L185.929,324.338L186.376,324.843L186.829,325.333L187.29,325.81L187.762,326.276L188.233,326.733L188.714,327.176L189.2,327.614L189.69,328.038L190.19,328.448L190.69,328.852L191.2,329.248L191.71,329.633L192.224,330.01L192.743,330.376L193.262,330.733L193.786,331.086L194.305,331.424L194.838,331.762L195.381,332.095L195.933,332.429L196.5,332.757L197.071,333.081L197.662,333.4L198.257,333.714L198.867,334.024L199.486,334.324L200.114,334.624L200.752,334.91L201.405,335.19L202.067,335.457L202.738,335.719L203.419,335.971L204.11,336.21L204.462,336.329L205.167,336.548L205.524,336.657L205.886,336.757L206.248,336.862L206.61,336.957L206.981,337.052L207.348,337.143L207.719,337.229L208.471,337.39L208.852,337.467L209.233,337.538L209.619,337.605L210.005,337.667L210.395,337.729L210.786,337.781L211.181,337.833L211.576,337.881L211.976,337.924L212.381,337.962L212.781,337.995L213.19,338.024L213.595,338.048L214.01,338.067L214.419,338.081L214.838,338.09L215.252,338.095L215.681,338.095L216.081,338.086L216.481,338.076L216.881,338.052L217.281,338.029L217.681,337.995L218.081,337.952L218.481,337.905L218.881,337.848L219.281,337.786L219.681,337.714L220.086,337.633L220.486,337.548L220.886,337.452L221.286,337.352L221.681,337.238L222.081,337.119L222.476,336.99L222.876,336.852L223.271,336.705L223.667,336.548L224.062,336.381L224.452,336.205L224.843,336.019L225.233,335.829L225.624,335.624L226.01,335.41L226.4,335.181L226.781,334.948L227.167,334.7L227.543,334.448L227.924,334.181L228.3,333.9L228.305,333.9L228.652,333.633L228.99,333.357L229.324,333.081L229.643,332.8L229.952,332.514L230.257,332.229L230.548,331.938L230.833,331.648L231.105,331.352L231.371,331.052L231.629,330.752L231.881,330.452L232.119,330.152L232.352,329.848L232.581,329.548L232.795,329.243L233.005,328.938L233.21,328.633L233.405,328.329L233.59,328.024L233.771,327.724L233.943,327.424L234.11,327.119L234.271,326.824L234.424,326.524L234.571,326.229L234.71,325.938L234.848,325.648L234.976,325.362L235.095,325.076L235.214,324.795L235.324,324.519L235.481,324.1L235.629,323.686L235.767,323.281L235.895,322.876L236.01,322.476L236.119,322.086L236.219,321.695L236.314,321.31L236.4,320.924L236.476,320.548L236.552,320.171L236.619,319.8L236.748,319.067L236.857,318.348L238,318.61L238.581,318.738L239.752,318.986L240.348,319.105L240.948,319.224L241.552,319.333L242.162,319.448L243.4,319.657L244.029,319.757L244.667,319.852L245.31,319.943L245.957,320.033L246.61,320.114L247.271,320.195L247.943,320.267L248.619,320.338L249.305,320.4L250,320.457L250.7,320.514L251.405,320.562L252.124,320.605L252.848,320.643L253.581,320.671L254.324,320.695L255.076,320.714L255.838,320.729L256.605,320.733L257.386,320.733L258.176,320.729L258.852,320.714L259.529,320.695L260.21,320.667L260.886,320.629L261.567,320.586L262.243,320.538L262.919,320.481L263.6,320.414L264.276,320.343L264.952,320.262L265.629,320.176L266.305,320.081L266.981,319.976L267.657,319.867L268.329,319.752L269.005,319.629L269.676,319.495L270.348,319.362L271.019,319.214L271.686,319.062L272.357,318.905L273.024,318.738L273.69,318.562L274.352,318.381L275.019,318.195L275.681,318L276.343,317.8L277,317.59L277.657,317.376L278.314,317.152L278.967,316.924L279.619,316.686L280.271,316.443L280.919,316.195L281.567,315.938L282.21,315.671L282.852,315.405L283.49,315.124L284.129,314.843L284.767,314.552L285.4,314.257L286.029,313.952L286.657,313.643L287.281,313.324L287.905,313L288.524,312.671L289.143,312.333L289.757,311.99L290.371,311.643L290.976,311.286L291.586,310.924L292.186,310.552L292.786,310.176L293.381,309.795L293.976,309.41L294.562,309.014L295.148,308.614L295.733,308.205L296.31,307.79L296.886,307.371L297.457,306.948L298.024,306.514L298.59,306.076L299.148,305.629L299.71,305.171L300.271,304.71L300.829,304.238L301.376,303.757L301.924,303.267L302.467,302.771L303.005,302.267L303.538,301.757L304.067,301.238L304.586,300.714L305.105,300.181L305.614,299.643L306.124,299.095L306.624,298.538L307.119,297.976L307.605,297.41L308.09,296.833L308.567,296.248L309.033,295.657L309.495,295.062L309.952,294.457L310.4,293.848L310.843,293.229L311.276,292.605L311.7,291.976L312.119,291.338L312.533,290.695L312.933,290.043L313.329,289.386L313.714,288.724L314.09,288.052L314.462,287.376L314.824,286.695L315.171,286.01L315.514,285.314L315.848,284.614L316.171,283.905L316.486,283.195L316.79,282.476L317.081,281.752L317.367,281.019L317.638,280.286L317.905,279.543L318.157,278.795L318.395,278.043L318.629,277.286L318.848,276.519L319.057,275.748L319.252,274.976L319.438,274.195L319.614,273.41L319.776,272.619L319.924,271.819L320.062,271.019L320.19,270.21L320.3,269.4L320.4,268.581L320.49,267.762L320.562,266.933L320.624,266.1L320.671,265.267L320.705,264.424L320.729,263.576L320.733,262.729L320.733,262.576L320.729,262.338L320.724,262.186L320.724,262.133L320.648,260.071L320.567,258.09L320.481,256.19L320.39,254.362L320.295,252.605L320.195,250.919L320.086,249.295L319.967,247.729L319.9,246.971L319.838,246.224L319.767,245.49L319.7,244.771L319.624,244.062L319.548,243.367L319.471,242.681L319.39,242.01L319.305,241.348L319.214,240.695L319.124,240.052L319.029,239.424L318.929,238.8L318.829,238.186L318.724,237.576L318.614,236.976L318.49,236.362L318.367,235.743L318.233,235.129L318.09,234.519L317.943,233.91L317.786,233.305L317.619,232.705L317.443,232.105L317.262,231.51L317.067,230.914L316.867,230.329L316.657,229.743L316.433,229.167L316.205,228.59L315.962,228.024L315.714,227.457L315.452,226.9L315.176,226.343L314.895,225.795L314.6,225.257L314.29,224.719L313.971,224.19L313.638,223.667L313.471,223.41L313.295,223.152L313.119,222.895L312.938,222.643L312.757,222.39L312.571,222.143L312.381,221.895L312.186,221.648L311.99,221.405L311.79,221.162L311.59,220.924L311.381,220.686L311.171,220.448L310.957,220.214L310.743,219.986L310.524,219.752L310.3,219.529L310.071,219.3L309.633,218.886L309.205,218.486L308.781,218.114L308.367,217.757L307.952,217.419L307.548,217.095L307.152,216.79L306.757,216.5L306.371,216.224L305.99,215.957L305.614,215.705L305.248,215.462L304.881,215.229L304.524,215L303.824,214.562L303.848,214.49L303.876,214.429L303.929,214.314L303.981,214.2L304.005,214.138L304.029,214.062L304.214,213.41L304.39,212.748L304.562,212.086L304.724,211.419L304.886,210.748L305.043,210.071L305.195,209.395L305.338,208.719L305.481,208.038L305.619,207.352L305.752,206.667L305.881,205.976L306.005,205.281L306.129,204.59L306.243,203.89L306.357,203.195L306.467,202.495L306.576,201.79L306.781,200.381L306.971,198.967L307.157,197.548L307.329,196.124L307.495,194.7L307.652,193.271L307.805,191.843L307.952,190.41L308.095,188.971L308.229,187.543L308.357,186.119L308.481,184.705L308.6,183.295L308.819,180.524L309.029,177.824L309.224,175.205L309.581,170.3L309.667,169.176L309.757,168.076L309.848,167L309.943,165.962L310.038,164.962L310.129,164.01L310.219,163.114L310.31,162.281L310.39,161.51L310.471,160.819L310.61,159.7L310.648,159.448L310.7,159.171L310.79,158.729L310.81,158.643L310.79,158.7L310.61,159.429L310.719,158.971L310.824,158.519L310.924,158.067L311.014,157.614L311.1,157.162L311.176,156.71L311.248,156.257L311.314,155.805L311.376,155.357L311.429,154.91L311.471,154.462L311.514,154.014L311.548,153.567L311.576,153.124L311.595,152.676L311.614,152.233L311.624,151.79L311.629,151.352L311.624,150.91L311.619,150.471L311.605,150.038L311.586,149.6L311.562,149.167L311.533,148.733L311.495,148.3L311.457,147.871L311.41,147.443L311.357,147.014L311.3,146.59L311.238,146.167L311.171,145.743L311.1,145.324L311.024,144.905L310.938,144.49L310.852,144.076L310.762,143.662L310.662,143.252L310.562,142.843L310.457,142.438L310.343,142.033L310.229,141.633L310.105,141.233L309.981,140.833L309.852,140.438L309.719,140.048L309.581,139.657L309.438,139.267L309.29,138.881L309.138,138.5L308.986,138.119L308.824,137.743L308.662,137.367L308.495,136.995L308.324,136.629L308.148,136.262L307.967,135.895L307.786,135.533L307.6,135.176L307.41,134.824L307.214,134.471L307.019,134.124L306.819,133.776L306.614,133.433L306.405,133.095L306.214,132.79L306.019,132.49L305.819,132.186L305.614,131.886L305.4,131.586L305.186,131.286L304.967,130.99L304.743,130.695L304.51,130.4L304.276,130.11L304.038,129.814L303.79,129.529L303.543,129.238L303.29,128.952L303.033,128.671L302.771,128.39L302.505,128.11L302.233,127.833L301.952,127.562L301.671,127.29L301.39,127.019L301.1,126.752L300.805,126.49L300.505,126.229L300.205,125.976L299.895,125.719L299.586,125.471L299.267,125.224L298.948,124.981L298.624,124.738L298.295,124.505L297.962,124.271L297.624,124.043L297.281,123.819L296.938,123.6L296.586,123.381L296.233,123.171L295.876,122.962L295.514,122.762L295.148,122.562L294.776,122.371L294.4,122.181L294.024,121.995L293.643,121.819L293.257,121.648L292.867,121.476L292.471,121.314L292.076,121.157L291.671,121.005L291.267,120.857L290.862,120.719L290.448,120.581L290.029,120.452L289.61,120.333L289.186,120.214L288.762,120.105L288.329,120L287.895,119.905L287.457,119.814L287.014,119.729L286.571,119.652L286.119,119.581L285.667,119.514L285.214,119.457L284.929,119.371L284.643,119.3L284.357,119.233L284.067,119.176L283.776,119.133L283.486,119.095L283.19,119.071L282.895,119.057L282.871,119.052L282.867,119.052L282.871,119.052L282.643,119.048L282.414,119.048ZM333.89,228.571L334.205,227.919L334.248,227.81L333.89,228.571ZM291.024,86.762L291.619,86.857L292.6,87.081L293.976,87.448L292.524,87.01L292.005,86.919L291.619,86.857L291.271,86.776L290.038,86.624L291.024,86.762Z" style="fill:#fff;"/>
            <path id="path3336" d="M269.243,167.971C269.295,167.952 269.41,167.905 269.638,167.776C270.59,167.224 271.105,166.338 271.462,164.605C271.814,162.871 271.814,160.514 271.748,158.143C271.676,155.767 271.514,153.419 271.952,151.133C272.171,149.995 272.552,148.786 273.505,147.705C274.457,146.624 276.043,145.938 277.514,145.905C281.138,145.819 284.719,146.371 286.943,149.214C289.162,152.052 289.133,155.933 287.9,160.829C287.49,162.433 287.105,167 286.805,172.4C286.505,177.8 286.21,184.219 285.676,190.433C285.143,196.648 284.39,202.633 283.038,207.381C282.362,209.757 281.552,211.833 280.352,213.567C279.148,215.3 277.276,216.824 274.929,216.99C271.8,217.214 268.9,216.052 267.319,213.952C265.743,211.852 265.348,209.419 265.133,206.981C264.71,202.095 265.133,196.614 264.062,192.895C262.705,188.162 261.229,181.562 258.686,176.376C257.414,173.786 255.895,171.595 254.171,170.152C252.452,168.705 250.619,167.924 248.076,167.943C242.076,167.995 239.324,169.29 237.405,171.329C235.486,173.362 234.252,176.724 232.848,181.257C230.024,190.381 227.586,198.595 230.067,206.957C231.357,211.305 232.59,213.362 235.681,215.219C238.771,217.076 244.167,218.567 253.19,220.1C262.624,221.705 273.124,224.952 281.51,231.081C289.895,237.214 296.086,246.533 296.086,259.2C296.086,271.71 290.976,281.105 283.262,287.062C275.548,293.019 265.457,295.662 255.276,295.8C238.686,296.024 227.719,290.381 221.6,286.533C220.838,290.086 220.662,294.757 220.781,299.529C220.857,302.652 220.919,305.586 220.224,308.248C219.876,309.581 219.314,310.924 218.205,312.029C217.09,313.133 215.41,313.776 213.781,313.795C208.962,313.833 205.452,311.381 203.924,308.462C202.395,305.548 202.367,302.529 202.367,300.619C202.367,299.052 202.171,286.548 202.014,274.386C201.933,268.305 201.862,262.262 201.833,257.59C201.819,255.257 201.814,253.271 201.824,251.776C201.829,250.286 201.767,249.733 201.919,248.662C202.329,245.829 204.057,244.248 206.252,242.552C208.448,240.857 211.338,239.429 214.686,239.429C217.014,239.429 218.952,240.824 220.148,242.371C221.343,243.924 222.11,245.733 222.738,247.652C223.995,251.486 224.619,255.833 225.038,258.9C225.286,260.71 227.61,265.771 231.981,269.795C236.352,273.824 242.59,277.138 250.943,277.138C259.838,277.138 267.195,275.9 271.762,273.333C276.329,270.767 278.457,267.429 277.957,261.01C277.452,254.571 274.262,249.081 268.633,244.695C263.005,240.31 254.895,237.148 244.943,235.933C234.181,234.619 225.043,231.348 219.019,224.467C213,217.581 210.548,207.452 212.167,193.686L212.171,193.667L212.171,193.652C214.081,179.01 217.848,168.2 223.738,160.91C229.624,153.624 237.795,150.157 247.071,150.467C256.8,150.79 262.052,157.243 265.152,162.143C266.705,164.595 267.952,166.733 268.743,167.557C269.033,167.857 269.2,167.952 269.243,167.971L269.233,167.976L269.238,167.976C269.257,167.981 269.257,167.981 269.243,167.971ZM269.233,167.976L269.233,167.976Z" style="fill:#fff;"/>
        </g>
    </g>
</svg>
